<svg id="visual" viewBox="0 0 1920 760" width="1920" height="760" xmlns="http://www.w3.org/2000/svg" xmlns:xlink="http://www.w3.org/1999/xlink" version="1.1"><rect x="0" y="0" width="1920" height="760" fill="#000000"></rect><path d="M0 451L45.7 451.7C91.3 452.3 182.7 453.7 274.2 467.7C365.7 481.7 457.3 508.3 548.8 516.5C640.3 524.7 731.7 514.3 823 519.3C914.3 524.3 1005.7 544.7 1097 536.8C1188.3 529 1279.7 493 1371.2 481C1462.7 469 1554.3 481 1645.8 486.7C1737.3 492.3 1828.7 491.7 1874.3 491.3L1920 491L1920 761L1874.3 761C1828.7 761 1737.3 761 1645.8 761C1554.3 761 1462.7 761 1371.2 761C1279.7 761 1188.3 761 1097 761C1005.7 761 914.3 761 823 761C731.7 761 640.3 761 548.8 761C457.3 761 365.7 761 274.2 761C182.7 761 91.3 761 45.7 761L0 761Z" fill="#fa7268"></path><path d="M0 519L45.7 521.7C91.3 524.3 182.7 529.7 274.2 526.5C365.7 523.3 457.3 511.7 548.8 512.3C640.3 513 731.7 526 823 541.5C914.3 557 1005.7 575 1097 568.2C1188.3 561.3 1279.7 529.7 1371.2 519C1462.7 508.3 1554.3 518.7 1645.8 522.3C1737.3 526 1828.7 523 1874.3 521.5L1920 520L1920 761L1874.3 761C1828.7 761 1737.3 761 1645.8 761C1554.3 761 1462.7 761 1371.2 761C1279.7 761 1188.3 761 1097 761C1005.7 761 914.3 761 823 761C731.7 761 640.3 761 548.8 761C457.3 761 365.7 761 274.2 761C182.7 761 91.3 761 45.7 761L0 761Z" fill="#ef5f67"></path><path d="M0 553L45.7 562.2C91.3 571.3 182.7 589.7 274.2 598C365.7 606.3 457.3 604.7 548.8 605.3C640.3 606 731.7 609 823 612.7C914.3 616.3 1005.7 620.7 1097 614.7C1188.3 608.7 1279.7 592.3 1371.2 594.8C1462.7 597.3 1554.3 618.7 1645.8 617.2C1737.3 615.7 1828.7 591.3 1874.3 579.2L1920 567L1920 761L1874.3 761C1828.7 761 1737.3 761 1645.8 761C1554.3 761 1462.7 761 1371.2 761C1279.7 761 1188.3 761 1097 761C1005.7 761 914.3 761 823 761C731.7 761 640.3 761 548.8 761C457.3 761 365.7 761 274.2 761C182.7 761 91.3 761 45.7 761L0 761Z" fill="#e34c67"></path><path d="M0 682L45.7 673.5C91.3 665 182.7 648 274.2 642C365.7 636 457.3 641 548.8 642C640.3 643 731.7 640 823 639.3C914.3 638.7 1005.7 640.3 1097 647C1188.3 653.7 1279.7 665.3 1371.2 663.3C1462.7 661.3 1554.3 645.7 1645.8 644.8C1737.3 644 1828.7 658 1874.3 665L1920 672L1920 761L1874.3 761C1828.7 761 1737.3 761 1645.8 761C1554.3 761 1462.7 761 1371.2 761C1279.7 761 1188.3 761 1097 761C1005.7 761 914.3 761 823 761C731.7 761 640.3 761 548.8 761C457.3 761 365.7 761 274.2 761C182.7 761 91.3 761 45.7 761L0 761Z" fill="#d53867"></path><path d="M0 680L45.7 678.2C91.3 676.3 182.7 672.7 274.2 670.2C365.7 667.7 457.3 666.3 548.8 668C640.3 669.7 731.7 674.3 823 682.8C914.3 691.3 1005.7 703.7 1097 706.3C1188.3 709 1279.7 702 1371.2 699.8C1462.7 697.7 1554.3 700.3 1645.8 699.2C1737.3 698 1828.7 693 1874.3 690.5L1920 688L1920 761L1874.3 761C1828.7 761 1737.3 761 1645.8 761C1554.3 761 1462.7 761 1371.2 761C1279.7 761 1188.3 761 1097 761C1005.7 761 914.3 761 823 761C731.7 761 640.3 761 548.8 761C457.3 761 365.7 761 274.2 761C182.7 761 91.3 761 45.7 761L0 761Z" fill="#c62368"></path></svg>