<svg id="visual" viewBox="0 0 1920 760" width="1920" height="760" xmlns="http://www.w3.org/2000/svg" xmlns:xlink="http://www.w3.org/1999/xlink" version="1.1"><path d="M0 176L29.2 162C58.3 148 116.7 120 174.8 102.2C233 84.3 291 76.7 349.2 79.2C407.3 81.7 465.7 94.3 523.8 108.3C582 122.3 640 137.7 698.2 139C756.3 140.3 814.7 127.7 872.8 125.2C931 122.7 989 130.3 1047.2 126.5C1105.3 122.7 1163.7 107.3 1221.8 95.8C1280 84.3 1338 76.7 1396.2 80.5C1454.3 84.3 1512.7 99.7 1570.8 112.3C1629 125 1687 135 1745.2 130C1803.3 125 1861.7 105 1890.8 95L1920 85L1920 0L1890.8 0C1861.7 0 1803.3 0 1745.2 0C1687 0 1629 0 1570.8 0C1512.7 0 1454.3 0 1396.2 0C1338 0 1280 0 1221.8 0C1163.7 0 1105.3 0 1047.2 0C989 0 931 0 872.8 0C814.7 0 756.3 0 698.2 0C640 0 582 0 523.8 0C465.7 0 407.3 0 349.2 0C291 0 233 0 174.8 0C116.7 0 58.3 0 29.2 0L0 0Z" fill="#004cbb"></path><path d="M0 282L29.2 261.8C58.3 241.7 116.7 201.3 174.8 183.7C233 166 291 171 349.2 181C407.3 191 465.7 206 523.8 211C582 216 640 211 698.2 202.2C756.3 193.3 814.7 180.7 872.8 188.3C931 196 989 224 1047.2 227.8C1105.3 231.7 1163.7 211.3 1221.8 201.2C1280 191 1338 191 1396.2 192.3C1454.3 193.7 1512.7 196.3 1570.8 210.3C1629 224.3 1687 249.7 1745.2 249.7C1803.3 249.7 1861.7 224.3 1890.8 211.7L1920 199L1920 83L1890.8 93C1861.7 103 1803.3 123 1745.2 128C1687 133 1629 123 1570.8 110.3C1512.7 97.7 1454.3 82.3 1396.2 78.5C1338 74.7 1280 82.3 1221.8 93.8C1163.7 105.3 1105.3 120.7 1047.2 124.5C989 128.3 931 120.7 872.8 123.2C814.7 125.7 756.3 138.3 698.2 137C640 135.7 582 120.3 523.8 106.3C465.7 92.3 407.3 79.7 349.2 77.2C291 74.7 233 82.3 174.8 100.2C116.7 118 58.3 146 29.2 160L0 174Z" fill="#0059dd"></path><path d="M0 487L29.2 451.7C58.3 416.3 116.7 345.7 174.8 338.2C233 330.7 291 386.3 349.2 400.2C407.3 414 465.7 386 523.8 393.5C582 401 640 444 698.2 445.3C756.3 446.7 814.7 406.3 872.8 401.3C931 396.3 989 426.7 1047.2 445.7C1105.3 464.7 1163.7 472.3 1221.8 461C1280 449.7 1338 419.3 1396.2 402.8C1454.3 386.3 1512.7 383.7 1570.8 410.2C1629 436.7 1687 492.3 1745.2 513.8C1803.3 535.3 1861.7 522.7 1890.8 516.3L1920 510L1920 197L1890.8 209.7C1861.7 222.3 1803.3 247.7 1745.2 247.7C1687 247.7 1629 222.3 1570.8 208.3C1512.7 194.3 1454.3 191.7 1396.2 190.3C1338 189 1280 189 1221.8 199.2C1163.7 209.3 1105.3 229.7 1047.2 225.8C989 222 931 194 872.8 186.3C814.7 178.7 756.3 191.3 698.2 200.2C640 209 582 214 523.8 209C465.7 204 407.3 189 349.2 179C291 169 233 164 174.8 181.7C116.7 199.3 58.3 239.7 29.2 259.8L0 280Z" fill="#0066ff"></path><path d="M0 655L29.2 648.7C58.3 642.3 116.7 629.7 174.8 629.7C233 629.7 291 642.3 349.2 642.3C407.3 642.3 465.7 629.7 523.8 625.8C582 622 640 627 698.2 637C756.3 647 814.7 662 872.8 669.5C931 677 989 677 1047.2 682.2C1105.3 687.3 1163.7 697.7 1221.8 701.5C1280 705.3 1338 702.7 1396.2 700.2C1454.3 697.7 1512.7 695.3 1570.8 687.8C1629 680.3 1687 667.7 1745.2 662.5C1803.3 657.3 1861.7 659.7 1890.8 660.8L1920 662L1920 508L1890.8 514.3C1861.7 520.7 1803.3 533.3 1745.2 511.8C1687 490.3 1629 434.7 1570.8 408.2C1512.7 381.7 1454.3 384.3 1396.2 400.8C1338 417.3 1280 447.7 1221.8 459C1163.7 470.3 1105.3 462.7 1047.2 443.7C989 424.7 931 394.3 872.8 399.3C814.7 404.3 756.3 444.7 698.2 443.3C640 442 582 399 523.8 391.5C465.7 384 407.3 412 349.2 398.2C291 384.3 233 328.7 174.8 336.2C116.7 343.7 58.3 414.3 29.2 449.7L0 485Z" fill="#3c80ff"></path><path d="M0 761L29.2 761C58.3 761 116.7 761 174.8 761C233 761 291 761 349.2 761C407.3 761 465.7 761 523.8 761C582 761 640 761 698.2 761C756.3 761 814.7 761 872.8 761C931 761 989 761 1047.2 761C1105.3 761 1163.7 761 1221.8 761C1280 761 1338 761 1396.2 761C1454.3 761 1512.7 761 1570.8 761C1629 761 1687 761 1745.2 761C1803.3 761 1861.7 761 1890.8 761L1920 761L1920 660L1890.8 658.8C1861.7 657.7 1803.3 655.3 1745.2 660.5C1687 665.7 1629 678.3 1570.8 685.8C1512.7 693.3 1454.3 695.7 1396.2 698.2C1338 700.7 1280 703.3 1221.8 699.5C1163.7 695.7 1105.3 685.3 1047.2 680.2C989 675 931 675 872.8 667.5C814.7 660 756.3 645 698.2 635C640 625 582 620 523.8 623.8C465.7 627.7 407.3 640.3 349.2 640.3C291 640.3 233 627.7 174.8 627.7C116.7 627.7 58.3 640.3 29.2 646.7L0 653Z" fill="#6198ff"></path></svg>