<svg id="visual" viewBox="0 0 900 600" width="900" height="600" xmlns="http://www.w3.org/2000/svg" xmlns:xlink="http://www.w3.org/1999/xlink" version="1.1"><rect x="0" y="0" width="900" height="600" fill="#002233"></rect><path d="M0 480L21.5 468.2C43 456.3 86 432.7 128.8 435.7C171.7 438.7 214.3 468.3 257.2 472.2C300 476 343 454 385.8 436.8C428.7 419.7 471.3 407.3 514.2 400.8C557 394.3 600 393.7 642.8 399.8C685.7 406 728.3 419 771.2 416.7C814 414.3 857 396.7 878.5 387.8L900 379L900 601L878.5 601C857 601 814 601 771.2 601C728.3 601 685.7 601 642.8 601C600 601 557 601 514.2 601C471.3 601 428.7 601 385.8 601C343 601 300 601 257.2 601C214.3 601 171.7 601 128.8 601C86 601 43 601 21.5 601L0 601Z" fill="#41c1ae" stroke-linecap="round" stroke-linejoin="miter"></path></svg>